<svg xmlns="http://www.w3.org/2000/svg" version="1.1" xmlns:xlink="http://www.w3.org/1999/xlink" xmlns:svgjs="http://svgjs.dev/svgjs" width="1000" height="1000" viewBox="0 0 1000 1000"><rect width="1000" height="1000" fill="#e91414"></rect><g transform="matrix(0.7,0,0,0.7,150.0000000000001,106.25)"><svg viewBox="0 0 320 360" data-background-color="#e91414" preserveAspectRatio="xMidYMid meet" height="1125" width="1000" xmlns="http://www.w3.org/2000/svg" xmlns:xlink="http://www.w3.org/1999/xlink"><g id="tight-bounds" transform="matrix(1,0,0,1,0,0)"><svg viewBox="0 0 320 360" height="360" width="320"><g><svg></svg></g><g><svg viewBox="0 0 320 360" height="360" width="320"><g><path xmlns="http://www.w3.org/2000/svg" d="M20.961 227.22l3.726 4.658-1.863-6.056c-0.466-2.795-3.726 0.466-1.863 1.398M25.153 224.425c1.397 2.329 2.795 4.658 2.795 6.987 0 3.261 2.795 4.658 5.123 5.589-3.261-3.726-5.124-13.974-7.918-12.576M204.017 26.929c7.918 0 15.371-0.932 23.756 0.931 20.495 5.124 37.729 15.371 49.374 29.811l32.606 52.169c1.397 13.042 4.192 27.482 3.726 43.319 3.261 0 2.795-4.658 6.521-5.59-3.726 9.316-5.59 20.961-6.521 34.469-2.329-7.453 0-18.632 0.466-24.687-3.261 5.124-5.124 1.397-5.124-0.932 0.466-3.726-1.397-3.261-2.795-4.658-5.124-4.658-8.384-9.782-12.11-17.7 2.329-6.055 2.795-14.905-4.658-19.563-2.329-1.397-5.124-3.726-6.521-7.453-1.863-5.124-5.124-11.179-4.193-19.097 0.466-2.329-6.987 5.124-11.179 1.863-18.166-12.576-36.332-27.016-58.224-39.127-11.645 0-20.029-4.192-24.221-9.316-3.726-4.658-0.932-10.713 4.658-11.179 3.261 0 6.987-0.932 9.782 0.932 0.466-1.863 2.329-4.192 4.657-4.192M157.904 16.215l0.932 0.466c4.658 0.932 6.987 7.453 12.11 5.124 0 3.261 0.466 6.521-0.466 8.85-1.397 3.726-5.59 3.726-8.85 3.726-31.208-1.863-49.374 11.179-68.471 22.358-5.124 3.261-10.713 5.59-14.906 9.782-20.029 18.632-41.921 35.866-47.045 70.335l-4.192 38.195c-0.466 4.192-5.124 8.384-4.192 13.508l3.26 22.824c-3.261-3.261-5.124 0.932-4.192 2.795 0.466 1.397 2.329 6.055 5.124 1.863 3.726 6.987 7.453 20.495 12.576 26.55 15.837 18.632 36.332 35.4 53.101 52.169 4.192-0.932 7.453-0.932 8.384-3.727 1.397 2.795-1.397 5.59-3.726 6.056 7.453 4.658 15.837 8.85 27.016 9.781 14.44 0.932 27.948 3.261 40.524 6.522 6.521-1.863 13.042-2.795 20.029-3.261 2.329 0 3.726-3.726 6.521-4.658l0.466-4.658c2.795 4.192 2.329-1.397 0.466-4.192 3.261 2.795 4.192 5.124 5.589 6.987 0-1.397 3.726-6.521 3.727-0.466l0.931-6.055c1.397-0.932 1.863 5.124 3.261 0.931 1.397-4.192 4.192-0.932 6.987-2.329-0.932 1.863-0.466 5.59 2.794 3.261l3.727-3.261c2.329 5.59 6.055 3.261 7.918 2.329 20.495-13.042 40.99-28.413 60.553-43.784l-0.466 6.055 2.329-7.453c2.329 2.329 4.192 0.466 5.124-0.931 2.795-4.658 6.521-9.316 12.577-13.508-7.453 20.029-16.303 35.866-27.482 48.908l-4.658 5.59c0 3.261-0.932 7.453-4.658 7.918-1.863 0.466-5.59-0.932-8.384 1.863-1.397 1.863 3.261 5.59-0.466 2.795-3.261-2.329-6.521 0-10.248 0.932-2.795 0.932 1.863 3.726 2.795 5.589 0.932 1.863 1.863 3.726 1.398 6.056l-5.124-5.59c-6.055 3.261-9.782 9.316-14.906 13.974-2.329 1.863-1.397 5.124-1.397 7.918-3.261 0-6.987-0.932-8.85 0.932-1.397 1.863-0.932 4.658-0.932 7.453-4.658-0.466-5.124-7.453-9.315-6.056-4.192 0.932-8.85 1.397-12.577 3.727 2.795 5.59-4.658 2.329-3.726 3.26-6.987-4.192-13.042-7.453-20.495-4.658-15.837-5.124-35.4-2.795-49.84-0.931 0-2.329 0.466-4.658-0.466-5.124-0.932 2.329-3.726 1.397-3.26 1.397-8.85-6.055-17.7-9.782-27.016-14.905-8.384 0.932-16.303-3.261-18.632-5.59-6.521-6.055-13.974-2.795-20.029-4.192-13.042-3.261-17.7-16.769-19.098-26.084-0.932-4.658-4.658-6.521-6.055-6.056-6.055-19.563-15.371-37.263-22.824-55.429-1.863-4.658-1.397-9.316-1.397-14.44 2.329 0.932 4.658 0.466 4.192-2.794-2.329-15.371-7.918-27.016-13.974-38.195 3.261-15.837 3.726-34.469 11.179-48.443 6.521-12.576 18.632-19.098 27.016-29.811 2.795-3.726 2.795-8.85 5.59-12.11 9.316-9.316 18.632-19.098 28.879-27.482 4.658-3.726 10.247 0 17.234-1.397 2.329-8.384 11.645-15.837 20.495-13.508 3.726 0.932 11.179-8.85 13.508-9.782 3.726-1.397 1.863 3.726 1.863 6.987 8.85-6.987 20.961-10.713 32.14-14.906" fill="#ffffff" fill-rule="nonzero" stroke="none" stroke-width="1" stroke-linecap="butt" stroke-linejoin="miter" stroke-miterlimit="10" stroke-dasharray="" stroke-dashoffset="0" font-family="none" font-weight="none" font-size="none" text-anchor="none" style="mix-blend-mode: normal" data-fill-palette-color="tertiary"></path></g><g transform="matrix(1,0,0,1,100.6441717791411,90)"><svg viewBox="0 0 118.71165644171779 180" height="180" width="118.71165644171779"><g><svg viewBox="0 0 118.71165644171779 180" height="180" width="118.71165644171779"><g><svg viewBox="0 0 118.71165644171779 180" height="180" width="118.71165644171779"><g><svg viewBox="0 0 118.71165644171779 180" height="180" width="118.71165644171779"><g id="textblocktransform"><svg viewBox="0 0 118.71165644171779 180" height="180" width="118.71165644171779" id="textblock"><g><svg viewBox="0 0 118.71165644171779 180" height="180" width="118.71165644171779"><g transform="matrix(1,0,0,1,0,0)"><svg width="118.71165644171779" viewBox="2.690000057220459 -38.790000915527344 26.239999771118164 39.790000915527344" height="180" data-palette-color="#ffffff"><path d="M8.59-0.95L8.59-0.95Q6.64 1 4.88 1L4.88 1Q3.76 1 3.37 0.17L3.37 0.17Q3.93-0.51 3.93-1.88L3.93-1.88 3.93-2.25Q3.93-2.39 3.91-2.51L3.91-2.51Q2.69-3.61 2.69-5.11 2.69-6.62 4.1-8.18L4.1-8.18Q3.69-9.01 3.69-9.95 3.69-10.89 3.97-11.71 4.25-12.52 4.74-13.13L4.74-13.13Q5.76-14.48 6.75-14.48 7.74-14.48 8.15-13.7L8.15-13.7Q7.28-12.77 7.28-10.79 7.28-8.81 7.85-7.35 8.42-5.88 9.47-4.83L9.47-4.83Q11.72-2.54 15.21-2.54L15.21-2.54Q17.55-2.54 19.19-3.88L19.19-3.88Q20.95-5.32 20.95-7.81L20.95-7.81Q20.95-9.57 20.12-10.67L20.12-10.67Q18.82-12.38 16.06-14.28L16.06-14.28Q13.94-15.77 12.67-15.77L12.67-15.77Q11.38-15.77 9.81-14.72L9.81-14.72Q10.23-15.97 10.23-17.04L10.23-17.04Q10.23-17.29 9.77-17.68L9.77-17.68 8.86-18.48Q4.59-22.41 3.81-25.78L3.81-25.78Q3.54-26.95 3.54-28.72 3.54-30.49 4.41-32.31 5.27-34.13 6.79-35.4L6.79-35.4Q9.94-38.09 14.79-38.09L14.79-38.09Q17.75-38.09 20.21-37.13L20.21-37.13Q21.26-36.72 22.61-36.72L22.61-36.72Q23.17-36.72 23.62-36.78 24.07-36.84 24.41-37.28L24.41-37.28Q24.73-37.74 24.73-38.11 24.73-38.48 24.63-38.72L24.63-38.72Q24.8-38.79 25.11-38.79 25.42-38.79 25.78-38.59 26.15-38.38 26.44-38.01L26.44-38.01Q27.1-37.18 27.1-36.15 27.1-35.11 26.51-34.57L26.51-34.57Q27.34-33.84 27.34-32.3L27.34-32.3Q27.34-30.79 26.32-29.76L26.32-29.76Q26.51-29.1 26.51-28.58 26.51-28.05 26.33-27.58 26.15-27.1 25.83-26.76L25.83-26.76Q25.12-26 24.49-26L24.49-26Q23.49-26 22.8-26.34L22.8-26.34Q23.22-27.32 23.22-28.44 23.22-29.57 22.72-30.75 22.22-31.93 21.31-32.81L21.31-32.81Q19.41-34.62 16.33-34.62L16.33-34.62Q14.38-34.62 13.13-33.42L13.13-33.42Q11.96-32.3 11.96-30.71L11.96-30.71Q11.96-29.52 12.55-28.71L12.55-28.71Q13.57-27.32 15.8-25.83L15.8-25.83 16.97-25.05Q17.94-24.44 18.29-24.44 18.63-24.44 18.97-24.51 19.31-24.58 19.73-24.71L19.73-24.71Q20.61-25 21.44-25.54L21.44-25.54 21.12-24.17Q20.97-23.49 20.97-23.17L20.97-23.17Q20.97-22.66 21.48-22.24L21.48-22.24Q26.05-18.29 27.59-15.63L27.59-15.63Q28.93-13.31 28.93-10.62 28.93-7.93 28.05-6.01 27.17-4.08 25.49-2.59L25.49-2.59Q21.78 0.73 15.84 0.73L15.84 0.73Q11.67 0.73 8.59-0.95ZM6.93-30.52L6.93-30.52Q6.01-30.13 6.01-28.49L6.01-28.49Q6.01-25.15 10.47-21.14L10.47-21.14 11.94-19.82Q12.7-19.14 12.61-18.77 12.52-18.41 12.46-18.19 12.4-17.97 12.33-17.77 12.26-17.58 12.23-17.48L12.23-17.48Q13.09-17.99 13.62-17.99L13.62-17.99Q14.7-17.99 15.65-17.41L15.65-17.41Q20.36-14.48 22.05-12.18L22.05-12.18Q23.27-10.5 23.32-7.98L23.32-7.98Q23.32-7.08 23.19-6.47L23.19-6.47Q24.49-7.3 24.49-9.11L24.49-9.11Q24.49-10.86 24.01-11.82 23.54-12.77 22.9-13.51 22.27-14.26 21.25-15.14 20.24-16.02 18.75-17.04L18.75-17.04 15.28-19.41Q11.01-22.22 8.79-25.34L8.79-25.34Q6.84-28.1 6.93-30.52Z" opacity="1" transform="matrix(1,0,0,1,0,0)" fill="#ffffff" class="undefined-text-0" data-fill-palette-color="primary" id="text-0"></path></svg></g></svg></g></svg></g></svg></g><g></g></svg></g></svg></g></svg></g></svg></g><defs></defs></svg><rect width="320" height="360" fill="none" stroke="none" visibility="hidden"></rect></g></svg></g></svg>